<svg id="Layer_1" data-name="Layer 1" xmlns="http://www.w3.org/2000/svg" viewBox="0 0 360 215.9"><defs><style>.cls-1{fill:#ff2d00;}.cls-2{fill:#fc6803;}.cls-3{fill:#15224d;}.cls-4{fill:#026a8e;}</style></defs><polygon class="cls-1" points="176.35 43.96 286.8 107.9 342.34 75.59 270.37 34.15 231.94 12.03 176.35 43.96"/><polygon class="cls-2" points="176.35 46.21 176.38 101.78 224.03 74.19 176.35 46.21"/><polygon class="cls-2" points="288.2 109.98 288.24 163.21 342.33 131.2 342.34 77.84 288.2 109.98"/><path class="cls-3" d="M30.69,40.14H28V55.07H17.66v2.58H28V98.42H41.1V95.84H30.69V57.65H41.1V55.07H30.69ZM92.53,74.8a21,21,0,0,0-5.09-14.39A17.16,17.16,0,0,0,65.92,57a18.31,18.31,0,0,0-6,5.79V39.14H49.13v2.58h8.15V95.84H49.13v2.58h19V95.84H60V72.35a14.75,14.75,0,0,1,4.18-10.83,14.61,14.61,0,0,1,21.32.81,18.35,18.35,0,0,1,4.41,12.51v21H81.71v2.58h19V95.84H92.53ZM139.93,61a21.91,21.91,0,0,0-16.25-6.79,22.5,22.5,0,0,0-16.2,6.7,22.1,22.1,0,0,0,.09,32.13,23.43,23.43,0,0,0,16.52,6.24,20.78,20.78,0,0,0,12-3.43,23.23,23.23,0,0,0,8-9.83h-2.67A20.59,20.59,0,0,1,138.84,90a18,18,0,0,1-5.52,4.64,18.83,18.83,0,0,1-9.23,2.26,20.37,20.37,0,0,1-14.48-5.78,19,19,0,0,1-6.24-14.27h43.07A21.82,21.82,0,0,0,139.93,61Zm-29.77,1a19.75,19.75,0,0,1,13.5-5.34,18.84,18.84,0,0,1,11.6,3.66,20.47,20.47,0,0,1,6.07,7.51,20.06,20.06,0,0,1,2.08,6.52h-40A19.23,19.23,0,0,1,110.16,62Zm-61.31,55.9a22.35,22.35,0,0,0-12,3.3,22.73,22.73,0,0,0-8,8.74V102.83H18v2.58h8.15v54.11H18v2.58H28.81V151.92a21.73,21.73,0,0,0,8.32,8A24.72,24.72,0,0,0,49.39,163a20.59,20.59,0,0,0,15.71-7,23.19,23.19,0,0,0,6.33-16.31,20.41,20.41,0,0,0-6.7-15.4A22.28,22.28,0,0,0,48.85,117.94Zm14.3,36.49a17.82,17.82,0,0,1-13.71,6.18,20.34,20.34,0,0,1-14.75-6.07A19.7,19.7,0,0,1,28.49,140a18.32,18.32,0,0,1,6-13.86,20.29,20.29,0,0,1,14.39-5.66,19.46,19.46,0,0,1,13.89,5.71,18.25,18.25,0,0,1,6,13.68A21.05,21.05,0,0,1,63.15,154.43Zm52.7-29.7a21.87,21.87,0,0,0-16.25-6.79,22.45,22.45,0,0,0-16.19,6.69,22.11,22.11,0,0,0,.09,32.14A23.4,23.4,0,0,0,100,163a20.81,20.81,0,0,0,12-3.43,23.38,23.38,0,0,0,8-9.83H117.3a20.94,20.94,0,0,1-2.54,3.92,18.09,18.09,0,0,1-5.52,4.64,18.91,18.91,0,0,1-9.23,2.25,20.34,20.34,0,0,1-14.48-5.78,18.93,18.93,0,0,1-6.24-14.26h43.07A21.8,21.8,0,0,0,115.85,124.73Zm-29.77,1a19.75,19.75,0,0,1,13.5-5.34,18.83,18.83,0,0,1,11.6,3.67,20.29,20.29,0,0,1,6.07,7.51,19.68,19.68,0,0,1,2.08,6.52h-40A19.3,19.3,0,0,1,86.08,125.72Zm82.19,12.76q0-9.81-5.43-15.2-5-5-13.39-5a17.46,17.46,0,0,0-8.87,2.4,18.34,18.34,0,0,0-6.16,5.75v-7.7H123.61v2.58h8.14v38.19h-8.14v2.58h19v-2.58h-8.15V136a14.94,14.94,0,0,1,4.39-10.82,14.31,14.31,0,0,1,10.59-4.47q7.07,0,11.4,4.25,4.8,4.71,4.8,13.53v21h-8.15v2.58h19v-2.58h-8.14Zm45.88,15.1a18.69,18.69,0,0,1-15,7,20.38,20.38,0,0,1-14.57-5.92,19.44,19.44,0,0,1-.12-28.36,20,20,0,0,1,14.41-5.9,19,19,0,0,1,9.28,2.36,21.78,21.78,0,0,1,5.88,4.79,21.39,21.39,0,0,1,2.67,3.8h2.08V118.75h-2.67v6.79a22.66,22.66,0,0,0-7.46-5.56,23.14,23.14,0,0,0-9.78-2,22.51,22.51,0,0,0-16.28,6.6,21.27,21.27,0,0,0-6.79,15.82,21.48,21.48,0,0,0,6.92,16.32A23.13,23.13,0,0,0,199.13,163a21.62,21.62,0,0,0,12.55-3.79,22.68,22.68,0,0,0,8.21-10.6h-2.67A22.35,22.35,0,0,1,214.15,153.58Zm50.1-15.1a21,21,0,0,0-5.09-14.39,17.16,17.16,0,0,0-21.52-3.44,18.25,18.25,0,0,0-6,5.8V102.83H220.85v2.58H229v54.11h-8.15v2.58h19v-2.58h-8.14V136a14.77,14.77,0,0,1,4.18-10.84,14.59,14.59,0,0,1,21.31.82,18.28,18.28,0,0,1,4.42,12.51v21h-8.15v2.58h19v-2.58h-8.14Z"/><path class="cls-4" d="M26.14,175V176H25c-2.47,0-4,1.82-4,4.44v6.87H19.82V175h.83l.2,2.44A4.53,4.53,0,0,1,25.07,175Z"/><path class="cls-4" d="M39.3,181.55H28.1a5,5,0,0,0,5.11,4.93,5,5,0,0,0,4.56-2.75H39a6.11,6.11,0,0,1-5.75,3.85,6.42,6.42,0,0,1,0-12.84,6.08,6.08,0,0,1,6.11,6.38C39.32,181.26,39.31,181.41,39.3,181.55Zm-11.18-1h10.1a4.94,4.94,0,0,0-5-4.7A5,5,0,0,0,28.12,180.51Z"/><path class="cls-4" d="M60.21,179.51v7.82H59.1v-7.51c0-2.47-1.28-4-3.28-4-2.25,0-3.88,1.85-3.89,4.46v7.09h-1.1v-7.51c0-2.49-1.26-4-3.3-4-2.24,0-3.87,1.85-3.88,4.46v7.09H42.52V175h.84l.19,2.19a4.7,4.7,0,0,1,4.2-2.44,3.94,3.94,0,0,1,3.88,2.85A4.68,4.68,0,0,1,56,174.74C58.53,174.74,60.21,176.68,60.21,179.51Z"/><path class="cls-4" d="M63.25,181.16a6.46,6.46,0,1,1,6.46,6.42A6.27,6.27,0,0,1,63.25,181.16Zm11.77,0a5.32,5.32,0,1,0-5.31,5.33A5.17,5.17,0,0,0,75,181.16Z"/><path class="cls-4" d="M85.13,186.28v1.05H83.65a3.6,3.6,0,0,1-3.88-3.93V176H77.71v-.26l3-2.95h.22V175H85v1H80.89v7.35a2.63,2.63,0,0,0,2.89,2.91Z"/><path class="cls-4" d="M99,181.55H87.78a5.13,5.13,0,0,0,9.67,2.18h1.18a6.09,6.09,0,0,1-5.74,3.85,6.42,6.42,0,0,1,0-12.84A6.08,6.08,0,0,1,99,181.12C99,181.26,99,181.41,99,181.55Zm-11.18-1H97.9a4.94,4.94,0,0,0-5-4.7A5,5,0,0,0,87.8,180.51Z"/><path class="cls-4" d="M113.9,186.28v1.05h-1.47a3.6,3.6,0,0,1-3.88-3.93V176h-2.06v-.26l3-2.95h.23V175h4.14v1h-4.14v7.35a2.63,2.63,0,0,0,2.89,2.91Z"/><path class="cls-4" d="M128.2,175v12.34h-.95l-.13-2.68a6.09,6.09,0,0,1-5.36,2.93,6.42,6.42,0,0,1,0-12.84,6.1,6.1,0,0,1,5.37,2.94l.16-2.69Zm-6.37,11.5a5.33,5.33,0,0,0,0-10.66,5.33,5.33,0,0,0,0,10.66Z"/><path class="cls-4" d="M132.5,170.62h1.12v16.71H132.5Z"/><path class="cls-4" d="M149.18,181.55H138a5.13,5.13,0,0,0,9.67,2.18h1.18a6.09,6.09,0,0,1-5.74,3.85,6.42,6.42,0,0,1,0-12.84,6.08,6.08,0,0,1,6.11,6.38C149.2,181.26,149.19,181.41,149.18,181.55Zm-11.18-1h10.1a4.94,4.94,0,0,0-5-4.7A5,5,0,0,0,138,180.51Z"/><path class="cls-4" d="M163,180v7.33h-1.12v-7.1c0-2.8-1.46-4.45-4-4.45a4.48,4.48,0,0,0-4.37,4.51v7h-1.12V175h.84l.22,2.5a5.29,5.29,0,0,1,4.69-2.75C161.1,174.74,163,176.87,163,180Z"/><path class="cls-4" d="M172.83,186.28v1.05h-1.48a3.6,3.6,0,0,1-3.88-3.93V176h-2.06v-.26l3-2.95h.22V175h4.14v1h-4.14v7.35a2.63,2.63,0,0,0,2.89,2.91Z"/><path class="cls-4" d="M192.46,180v7.33h-1.12v-7.1c0-2.8-1.46-4.45-4-4.45a4.48,4.48,0,0,0-4.37,4.51v7H181.9V175h.84l.22,2.5a5.29,5.29,0,0,1,4.69-2.75C190.61,174.74,192.46,176.87,192.46,180Z"/><path class="cls-4" d="M207.81,181.55h-11.2a5.12,5.12,0,0,0,9.66,2.18h1.19a6.1,6.1,0,0,1-5.75,3.85,6.42,6.42,0,0,1,0-12.84,6.08,6.08,0,0,1,6.12,6.38C207.83,181.26,207.82,181.41,207.81,181.55Zm-11.18-1h10.09a4.93,4.93,0,0,0-5-4.7A5,5,0,0,0,196.63,180.51Z"/><path class="cls-4" d="M216.77,186.28v1.05H215.3a3.61,3.61,0,0,1-3.89-3.93V176h-2.06v-.26l3-2.95h.22V175h4.15v1h-4.15v7.35a2.63,2.63,0,0,0,2.89,2.91Z"/><path class="cls-4" d="M236.25,175l-4.32,12.34H231l-4-9.84-3.95,9.84h-.89L218,175h1.18l3.55,10.43,4.11-10.09h.45l4.14,10.13L235.1,175Z"/><path class="cls-4" d="M237.78,181.16a6.46,6.46,0,1,1,6.46,6.42A6.27,6.27,0,0,1,237.78,181.16Zm11.78,0a5.32,5.32,0,1,0-5.32,5.33A5.18,5.18,0,0,0,249.56,181.16Z"/><path class="cls-4" d="M260.26,175V176h-1.15c-2.48,0-4.06,1.82-4.06,4.44v6.87h-1.11V175h.83l.2,2.44a4.53,4.53,0,0,1,4.22-2.48Z"/><path class="cls-4" d="M266,181.42h-2.15v5.91h-1.11V170.62h1.11v9.75h2.17l4.48-5.38h1.38L267,180.9l5.36,6.43H271Z"/></svg>